<svg width="180" height="115" viewBox="0 0 180 115" fill="none" xmlns="http://www.w3.org/2000/svg">
<path d="M25.7336 4.27999C43.0169 -4.77316 71.4765 2.76852 84.9113 6.55785C89.114 7.74322 93.4423 8.29084 97.8086 8.23553C147.843 7.60182 188.255 1.11221 177.234 54.7797C166.215 108.437 71.2336 131.5 25.7336 100C-19.7664 68.5 4.73361 15.28 25.7336 4.27999Z" fill="#3DA9FC"/>
<path d="M82.4414 42.3422C83.1737 42.3422 83.7696 41.3861 83.7696 40.2109C83.7696 39.0357 83.1737 38.0796 82.4414 38.0796C81.7091 38.0796 81.1134 39.0357 81.1134 40.2109C81.1134 41.3861 81.7091 42.3422 82.4414 42.3422Z" fill="white"/>
<path d="M95.731 42.3422C96.4633 42.3422 97.059 41.3861 97.059 40.2109C97.059 39.0357 96.4633 38.0796 95.731 38.0796C94.9987 38.0796 94.4029 39.0357 94.4029 40.2109C94.4029 41.3861 94.9987 42.3422 95.731 42.3422Z" fill="white"/>
<path d="M112.293 60.6737C112.612 60.0287 112.783 59.3144 112.783 58.5863C112.783 56.9149 111.877 55.3689 110.466 54.5299C110.513 54.3007 110.536 54.0659 110.536 53.8268C110.536 51.9879 109.111 50.4756 107.308 50.3361C106.875 48.6491 105.55 47.3448 103.857 46.9398V41.2874C104.528 41.0985 105.151 40.7398 105.664 40.2268L108.289 37.6022C109.905 35.9858 109.905 33.356 108.289 31.7398L102.763 26.2145C101.98 25.4316 100.939 25.0003 99.8322 25.0003C98.7249 25.0003 97.6839 25.4315 96.9009 26.2145C96.3245 26.7909 95.9446 27.5174 95.7812 28.2902C95.3857 28.2393 94.9866 28.2126 94.5873 28.2126H83.5852C83.1859 28.2126 82.7868 28.2392 82.3914 28.2902C82.2281 27.5171 81.848 26.7903 81.2714 26.2136C80.4875 25.4309 79.4464 25 78.3399 25C77.2342 25 76.1935 25.4309 75.4093 26.214L69.8831 31.74C68.2683 33.3561 68.2683 35.9858 69.8835 37.6024L72.5085 40.2263C73.0271 40.7451 73.6522 41.0975 74.3154 41.2837V46.9396C72.6216 47.3443 71.2964 48.6487 70.8647 50.3361C69.0608 50.4751 67.6353 51.9877 67.6353 53.8268C67.6353 54.0654 67.6589 54.3002 67.7059 54.5298C66.2953 55.3685 65.39 56.9147 65.39 58.5863C65.39 59.3159 65.5608 60.0309 65.8797 60.6762C64.8569 61.2624 64.1659 62.364 64.1659 63.6246C64.1659 64.5336 64.5196 65.387 65.1612 66.0272C65.6565 66.5226 66.2787 66.8451 66.9548 66.9667L69.7017 75.06C70.9509 78.7404 74.4017 81.2132 78.2883 81.2132H99.8839C103.77 81.2132 107.221 78.7404 108.471 75.0598L111.218 66.9658C112.801 66.6779 114.006 65.2897 114.006 63.6246C114.006 62.7165 113.652 61.8634 113.011 61.2213C112.794 61.0048 112.552 60.822 112.293 60.6737ZM98.0655 27.3789C98.5374 26.907 99.1648 26.6471 99.8322 26.6471C100.499 26.6471 101.127 26.907 101.599 27.3789L107.124 32.9041C108.098 33.8783 108.098 35.4633 107.124 36.4375L104.5 39.0621C103.89 39.6715 103.024 39.9222 102.184 39.7327C101.343 39.5431 100.668 38.9452 100.379 38.1331L97.4782 29.9833C97.1567 29.0796 97.3871 28.0573 98.0655 27.3789ZM95.7669 29.951C95.8056 30.148 95.8585 30.3434 95.9269 30.5356L98.8277 38.6854C99.3071 40.0326 100.426 41.0248 101.821 41.3393C101.951 41.3685 102.08 41.3899 102.21 41.4066V47.4608C102.21 49.9165 101.032 52.1818 99.1079 53.5998C99.1085 53.5656 99.1104 53.5316 99.1104 53.4974V48.6446C99.1104 45.8309 96.9425 43.5154 94.1892 43.2766C93.7735 42.4283 92.9886 41.7931 92.0453 41.5804V29.8594H94.5873C94.9826 29.8594 95.3773 29.8907 95.7669 29.951ZM89.9098 53.4975C89.9098 53.0427 89.5411 52.674 89.0863 52.674C88.6316 52.674 88.2629 53.0427 88.2629 53.4975C88.2629 54.5057 87.8699 55.4543 87.1573 56.1679C86.443 56.8813 85.4943 57.2743 84.4861 57.2743C82.4035 57.2743 80.7092 55.58 80.7092 53.4975V48.6447C80.7092 46.846 81.9848 45.3401 83.6787 44.9827C83.8366 46.5449 85.1371 47.7748 86.7293 47.8211V48.3865C86.7293 49.6861 87.7866 50.7433 89.0862 50.7433C90.3857 50.7433 91.443 49.6861 91.443 48.3865V47.8211C93.0351 47.7748 94.3357 46.545 94.4937 44.9828C96.1879 45.3404 97.4634 46.8462 97.4634 48.6447V53.4975C97.4634 54.5057 97.0706 55.4544 96.3579 56.1679C95.6435 56.8813 94.6949 57.2743 93.6867 57.2743C91.6041 57.2743 89.9098 55.58 89.9098 53.4975ZM90.1783 57.63C89.8246 57.7231 89.4584 57.7735 89.0858 57.7735C88.7145 57.7735 88.3494 57.7233 87.9964 57.6306C88.108 57.5356 88.2171 57.4371 88.3218 57.3324C88.6162 57.0377 88.8725 56.7152 89.0883 56.3708C89.3854 56.8447 89.754 57.2692 90.1783 57.63ZM86.8225 43.1492H86.9501H91.2218H91.3498C92.1842 43.1492 92.8629 43.828 92.8629 44.6623C92.8629 45.4966 92.1841 46.1755 91.3498 46.1755H90.6196C90.1648 46.1755 89.7961 46.5442 89.7961 46.9989V48.3862C89.7961 48.7778 89.4776 49.0963 89.0862 49.0963C88.6947 49.0963 88.3762 48.7778 88.3762 48.3862V46.9989C88.3762 46.5442 88.0075 46.1755 87.5528 46.1755H86.8226C85.9882 46.1755 85.3094 45.4966 85.3094 44.6623C85.3094 43.828 85.9882 43.1492 86.8225 43.1492ZM90.3983 29.8594V41.5023H87.7735V29.8594H90.3983ZM71.0482 36.438C70.0747 35.4637 70.0747 33.8783 71.048 32.9042L76.5734 27.379C77.0462 26.9069 77.6736 26.6469 78.3399 26.6469C79.007 26.6469 79.6348 26.9069 80.1073 27.3784C80.7852 28.0565 81.0157 29.0789 80.6943 29.9829L78.3459 36.5813C78.1934 37.0098 78.4171 37.4808 78.8455 37.6333C79.2735 37.7855 79.7448 37.5621 79.8974 37.1336L82.246 30.5348C82.3142 30.3429 82.367 30.1478 82.4055 29.9512C82.7952 29.8907 83.19 29.8595 83.5851 29.8595H86.1267V41.5806C85.1836 41.7935 84.3989 42.4286 83.9832 43.2768C81.2302 43.5152 79.0623 45.8309 79.0623 48.6448V53.4976C79.0623 53.5318 79.0642 53.5655 79.0649 53.5997C77.1406 52.1818 75.9624 49.9165 75.9624 47.461V41.4069C76.7679 41.306 77.551 40.9698 78.1994 40.3936C78.5394 40.0916 78.5702 39.5712 78.2681 39.2312C77.9661 38.8911 77.4456 38.8604 77.1057 39.1624C76.2384 39.933 74.7173 40.106 73.6729 39.0616L71.0482 36.438ZM67.0369 58.5863C67.0369 57.3266 67.8272 56.1764 69.0035 55.7241C69.2164 55.6422 69.3858 55.4758 69.4714 55.2643C69.557 55.0529 69.5509 54.8154 69.4547 54.6086C69.3403 54.3623 69.2823 54.0993 69.2823 53.827C69.2823 52.8045 70.1141 51.9726 71.1366 51.9726C71.2339 51.9726 71.3324 51.9801 71.4292 51.995C71.6542 52.0293 71.8837 51.9692 72.0627 51.8284C72.2417 51.6878 72.3545 51.4792 72.3742 51.2523C72.4786 50.0514 73.2966 49.0365 74.3919 48.6373C74.788 51.7399 76.7312 54.4596 79.5887 55.826C80.4615 57.6546 82.3286 58.9213 84.4863 58.9213C85.067 58.9213 85.6334 58.829 86.1703 58.6543C87.0572 59.1567 88.0566 59.4205 89.0859 59.4205C90.1172 59.4205 91.1176 59.1561 92.0044 58.6527C92.5344 58.8261 93.0996 58.9212 93.6868 58.9212C95.1344 58.9212 96.4964 58.3573 97.5226 57.3325C97.9679 56.8866 98.3259 56.377 98.5887 55.8245C101.445 54.4567 103.387 51.7362 103.782 48.633C104.887 49.0255 105.692 50.029 105.799 51.2527C105.819 51.4796 105.932 51.6882 106.111 51.8287C106.29 51.9693 106.519 52.0293 106.745 51.9946C106.84 51.9799 106.938 51.9725 107.035 51.9725C108.058 51.9725 108.89 52.8044 108.89 53.8268C108.89 54.1008 108.832 54.3631 108.718 54.6065C108.621 54.8134 108.615 55.0513 108.7 55.2632C108.786 55.4751 108.955 55.6421 109.168 55.7241C110.345 56.1767 111.136 57.3269 111.136 58.5863C111.136 59.1706 110.966 59.7401 110.655 60.2288C110.639 60.2286 110.624 60.2277 110.609 60.2277H104.651C104.398 58.9189 103.245 57.927 101.864 57.927H98.0094C96.6279 57.927 95.4744 58.9189 95.2219 60.2277H82.951C82.6984 58.9189 81.5449 57.927 80.1635 57.927H76.3093C74.9278 57.927 73.7744 58.9189 73.5219 60.2277H67.5639C67.5482 60.2277 67.5327 60.2287 67.517 60.2289C67.207 59.7408 67.0369 59.1713 67.0369 58.5863ZM103.056 60.7665V61.7738C103.056 62.0587 102.835 62.3034 102.574 62.3081C102.441 62.3106 102.315 62.2607 102.221 62.1676C102.126 62.0745 102.074 61.9501 102.074 61.8172C102.074 61.3625 101.705 60.9938 101.25 60.9938C100.795 60.9938 100.427 61.3625 100.427 61.8172C100.427 62.088 100.206 62.3081 99.9358 62.3081C99.6651 62.3081 99.4448 62.0879 99.4448 61.8172C99.4448 61.3625 99.0762 60.9938 98.6214 60.9938C98.1665 60.9938 97.7979 61.3625 97.7979 61.8172C97.7979 61.9501 97.7457 62.0745 97.6509 62.1676C97.5563 62.2606 97.43 62.3106 97.2974 62.3081C97.0365 62.3034 96.8161 62.0587 96.8161 61.7738V60.7665C96.8161 60.1089 97.3511 59.574 98.0086 59.574H101.863C102.521 59.574 103.056 60.1089 103.056 60.7665ZM81.356 60.7665V61.7738C81.356 62.0587 81.1356 62.3034 80.8747 62.3081C80.7425 62.3109 80.616 62.2607 80.5213 62.1676C80.4264 62.0745 80.3743 61.9501 80.3743 61.8172C80.3743 61.3625 80.0056 60.9938 79.5508 60.9938C79.0961 60.9938 78.7274 61.3625 78.7274 61.8172C78.7274 62.088 78.5071 62.3081 78.2365 62.3081C77.9659 62.3081 77.7456 62.0879 77.7456 61.8172C77.7456 61.3625 77.377 60.9938 76.9222 60.9938C76.4674 60.9938 76.0988 61.3625 76.0988 61.8172C76.0988 61.9501 76.0465 62.0745 75.9518 62.1676C75.857 62.2606 75.7289 62.3106 75.5982 62.3081C75.3374 62.3034 75.1169 62.0587 75.1169 61.7738V60.7665C75.1169 60.1089 75.6519 59.574 76.3095 59.574H80.1636C80.821 59.574 81.356 60.1089 81.356 60.7665ZM110.609 65.3747H105.496C105.041 65.3747 104.672 65.7434 104.672 66.1981C104.672 66.6529 105.041 67.0216 105.496 67.0216H109.46L106.911 74.5305C105.889 77.5426 103.065 79.5663 99.884 79.5663H78.2883C75.1075 79.5663 72.2835 77.5426 71.2611 74.5305L68.7125 67.0216H102.202C102.657 67.0216 103.025 66.6529 103.025 66.1981C103.025 65.7434 102.657 65.3747 102.202 65.3747H67.5639C67.0956 65.3747 66.6559 65.1929 66.3251 64.862C65.9948 64.5323 65.8127 64.0929 65.8127 63.6246C65.8127 62.6597 66.5983 61.8745 67.5639 61.8745H73.475C73.527 63.01 74.4444 63.9342 75.568 63.9548C76.0651 63.963 76.5379 63.8048 76.9231 63.503C77.2857 63.7861 77.7418 63.9551 78.2364 63.9551C78.731 63.9551 79.1872 63.7861 79.5498 63.503C79.9348 63.8048 80.4072 63.9631 80.9048 63.9548C82.0284 63.9342 82.9459 63.0101 82.9979 61.8745H95.1745C95.2265 63.01 96.144 63.9342 97.2677 63.9548C97.7587 63.9633 98.2374 63.8049 98.6226 63.503C98.9852 63.7861 99.4413 63.9551 99.936 63.9551C100.431 63.9551 100.887 63.7861 101.249 63.503C101.634 63.8048 102.108 63.9631 102.604 63.9548C103.728 63.9342 104.646 63.0101 104.698 61.8745H110.609C111.076 61.8745 111.516 62.0566 111.847 62.3865C112.177 62.7168 112.359 63.1565 112.359 63.6246C112.359 64.5896 111.574 65.3747 110.609 65.3747Z" fill="white"/>
<path d="M112.21 42.8759C110.446 42.8759 109.011 44.3108 109.011 46.0746C109.011 47.8384 110.446 49.2734 112.21 49.2734C113.974 49.2734 115.409 47.8384 115.409 46.0746C115.409 44.3108 113.974 42.8759 112.21 42.8759ZM112.21 47.6265C111.355 47.6265 110.658 46.9303 110.658 46.0746C110.658 45.2189 111.355 44.5227 112.21 44.5227C113.066 44.5227 113.762 45.2189 113.762 46.0746C113.762 46.9303 113.066 47.6265 112.21 47.6265Z" fill="white"/>
<path d="M114.483 32.2776C112.083 32.2776 110.131 34.2297 110.131 36.629C110.131 39.0282 112.083 40.9803 114.483 40.9803C116.882 40.9803 118.834 39.0283 118.834 36.629C118.834 34.2296 116.882 32.2776 114.483 32.2776ZM114.483 39.3336C112.992 39.3336 111.778 38.1204 111.778 36.6291C111.778 35.1378 112.992 33.9246 114.483 33.9246C115.974 33.9246 117.187 35.1379 117.187 36.6291C117.187 38.1202 115.974 39.3336 114.483 39.3336Z" fill="white"/>
<path d="M70.5417 42.7549C70.5417 40.63 68.8129 38.9011 66.6879 38.9011C64.5629 38.9011 62.8342 40.63 62.8342 42.7549C62.8342 44.8798 64.563 46.6087 66.688 46.6087C68.813 46.6087 70.5417 44.8799 70.5417 42.7549ZM64.4811 42.7549C64.4811 41.5381 65.4711 40.548 66.688 40.548C67.9049 40.548 68.8949 41.538 68.8949 42.7549C68.8949 43.9718 67.9049 44.9618 66.688 44.9618C65.4711 44.9618 64.4811 43.9718 64.4811 42.7549Z" fill="white"/>
</svg>
