<?xml version="1.0" encoding="utf-8"?><svg viewBox="0 0 40 40" xmlns="http://www.w3.org/2000/svg" xmlns:xlink="http://www.w3.org/1999/xlink"><style>:root>svg{display:none}:root>svg:target{display:block}</style><svg viewBox="0 0 30 30" id="facebook" xmlns="http://www.w3.org/2000/svg"><rect rx="5"/><path d="M16.7651 10.2249H18.0527V8.09436C17.8306 8.06532 17.0666 8 16.1769 8C14.3205 8 13.0488 9.10939 13.0488 11.1484V13.0249H11.0002V15.4067H13.0488V21.3998H15.5604V15.4073H17.5262L17.8382 13.0255H15.5599V11.3846C15.5604 10.6962 15.7555 10.2249 16.7651 10.2249Z"/></svg><svg viewBox="0 0 30 30" id="google" xmlns="http://www.w3.org/2000/svg"><rect rx="5"/><path d="M21.5485 13H20.0905V14.4513H18.6392V15.9093H20.0905V17.3606H21.5485V15.9093H22.9998V14.4513H21.5485V13Z"/><path d="M11.9997 20C14.8851 20 16.8017 17.9746 16.8017 15.116C16.8017 14.7886 16.7677 14.536 16.7204 14.284H12.0004V16.0026H14.8384C14.7224 16.7326 13.9791 18.158 12.0004 18.158C10.2957 18.158 8.90375 16.746 8.90375 15C8.90375 13.254 10.2951 11.8413 12.0004 11.8413C12.9757 11.8413 13.6237 12.2573 13.9924 12.612L15.3497 11.3093C14.4757 10.4913 13.3504 10 11.9997 10C9.23708 10 6.99976 12.2373 6.99976 15C6.99976 17.7626 9.23708 20 11.9997 20Z"/></svg><svg viewBox="0 0 30 30" id="insta" xmlns="http://www.w3.org/2000/svg"><rect rx="5"/><path d="M15.0001 13.4102C14.1234 13.4102 13.4102 14.1234 13.4102 15C13.4102 15.8766 14.1234 16.5898 15.0001 16.5898C15.8767 16.5898 16.5899 15.8766 16.5899 15C16.5899 14.1234 15.8767 13.4102 15.0001 13.4102Z"/><path d="M18.138 10H11.862C10.8353 10 10 10.8353 10 11.862V18.138C10 19.1647 10.8353 20 11.862 20H18.138C19.1647 20 20 19.1647 20 18.138V11.862C20 10.8353 19.1647 10 18.138 10ZM15 17.1758C13.8003 17.1758 12.8242 16.1997 12.8242 15C12.8242 13.8003 13.8003 12.8242 15 12.8242C16.1997 12.8242 17.1758 13.8003 17.1758 15C17.1758 16.1997 16.1997 17.1758 15 17.1758ZM18.0313 12.383C17.9768 12.4375 17.9014 12.4687 17.8243 12.4687C17.7471 12.4687 17.6715 12.4375 17.6171 12.383C17.5626 12.3285 17.5313 12.2529 17.5313 12.1758C17.5313 12.0986 17.5626 12.0232 17.6171 11.9687C17.6715 11.914 17.7471 11.8828 17.8243 11.8828C17.9012 11.8828 17.9768 11.914 18.0313 11.9687C18.086 12.0232 18.1172 12.0986 18.1172 12.1758C18.1172 12.2529 18.086 12.3285 18.0313 12.383Z"/></svg><svg viewBox="0 0 40 40" id="twitter" xmlns="http://www.w3.org/2000/svg"><rect rx="5"/><path d="M29 14.7314C28.3306 15.025 27.6173 15.2196 26.8737 15.3141C27.6387 14.8574 28.2226 14.1396 28.4971 13.2745C27.7838 13.6997 26.9963 14.0001 26.1571 14.1677C25.4798 13.4466 24.5146 13 23.4616 13C21.4186 13 19.7739 14.6582 19.7739 16.6911C19.7739 16.9836 19.7986 17.2649 19.8594 17.5326C16.7915 17.383 14.0769 15.9126 12.2532 13.6727C11.9349 14.2251 11.7481 14.8574 11.7481 15.538C11.7481 16.816 12.4062 17.9489 13.3872 18.6047C12.7944 18.5935 12.2127 18.4214 11.72 18.1502C11.72 18.1615 11.72 18.1761 11.72 18.1907C11.72 19.984 12.9991 21.4735 14.6765 21.8166C14.3761 21.8987 14.0487 21.9381 13.709 21.9381C13.4727 21.9381 13.2342 21.9246 13.0104 21.8751C13.4885 23.3365 14.8452 24.4109 16.4585 24.4457C15.203 25.4278 13.6089 26.0196 11.8831 26.0196C11.5805 26.0196 11.2902 26.0061 11 25.969C12.6346 27.0231 14.5719 27.625 16.661 27.625C23.4515 27.625 27.164 22 27.164 17.1242C27.164 16.9611 27.1583 16.8036 27.1505 16.6472C27.8828 16.1275 28.4982 15.4784 29 14.7314Z"/></svg></svg>