<?xml version="1.0" encoding="utf-8"?><!DOCTYPE svg PUBLIC "-//W3C//DTD SVG 1.1//EN" "http://www.w3.org/Graphics/SVG/1.1/DTD/svg11.dtd"><svg viewBox="0 0 2000 2000" xmlns="http://www.w3.org/2000/svg" xmlns:xlink="http://www.w3.org/1999/xlink"><style>:root>svg{display:none}:root>svg:target{display:block}</style><svg viewBox="0 0 11 21" id="f" xmlns="http://www.w3.org/2000/svg"><g clip-path="url(#aclip0_39_33)"><path fill-rule="evenodd" clip-rule="evenodd" d="M7.62817 20.8071V11.8071H10.3606L10.8069 7.80713H7.62817V5.85889C7.62817 4.82889 7.65449 3.80713 9.09378 3.80713H10.5516V0.947266C10.5516 0.904266 9.29937 0.807129 8.03256 0.807129C5.38688 0.807129 3.73029 2.46432 3.73029 5.50732V7.80713H0.806885V11.8071H3.73029V20.8071H7.62817Z"/></g><defs><clipPath id="aclip0_39_33"><rect transform="translate(0.806885 0.807129)"/></clipPath></defs></svg><svg viewBox="0 0 19 19" id="in" xmlns="http://www.w3.org/2000/svg"><g clip-path="url(#bclip0_39_38)"><path fill-rule="evenodd" clip-rule="evenodd" d="M18.2566 18.8071H14.5582V12.5079C14.5582 10.7808 13.9019 9.81562 12.5349 9.81562C11.0478 9.81562 10.2709 10.82 10.2709 12.5079V18.8071H6.70659V6.80713H10.2709V8.42353C10.2709 8.42353 11.3425 6.44051 13.889 6.44051C16.4343 6.44051 18.2566 7.99483 18.2566 11.2095V18.8071ZM2.45444 5.23582C1.24038 5.23582 0.256592 4.24432 0.256592 3.02148C0.256592 1.79864 1.24038 0.807129 2.45444 0.807129C3.6685 0.807129 4.6517 1.79864 4.6517 3.02148C4.6517 4.24432 3.6685 5.23582 2.45444 5.23582ZM0.614017 18.8071H4.33062V6.80713H0.614017V18.8071Z"/></g><defs><clipPath id="bclip0_39_38"><rect transform="translate(0.256592 0.807129)"/></clipPath></defs></svg><svg viewBox="0 0 25 25" id="insta" xmlns="http://www.w3.org/2000/svg"><g clip-path="url(#cclip0_39_42)"><path d="M12.7065 3.12733C15.8612 3.12733 16.2315 3.14139 17.4784 3.19764C18.6315 3.24921 19.2549 3.44139 19.6721 3.60546C20.2252 3.82108 20.619 4.07421 21.0315 4.48671C21.444 4.89921 21.7018 5.29296 21.9127 5.84608C22.0721 6.26327 22.269 6.88671 22.3206 8.03983C22.3768 9.28671 22.3909 9.65702 22.3909 12.8117C22.3909 15.9664 22.3768 16.3367 22.3206 17.5836C22.269 18.7367 22.0768 19.3601 21.9127 19.7773C21.6971 20.3305 21.444 20.7242 21.0315 21.1367C20.619 21.5492 20.2252 21.807 19.6721 22.018C19.2549 22.1773 18.6315 22.3742 17.4784 22.4258C16.2315 22.482 15.8612 22.4961 12.7065 22.4961C9.55181 22.4961 9.18149 22.482 7.93462 22.4258C6.78149 22.3742 6.15806 22.182 5.74087 22.018C5.18774 21.8023 4.79399 21.5492 4.38149 21.1367C3.96899 20.7242 3.71118 20.3305 3.50024 19.7773C3.34087 19.3601 3.14399 18.7367 3.09243 17.5836C3.03618 16.3367 3.02212 15.9664 3.02212 12.8117C3.02212 9.65702 3.03618 9.28671 3.09243 8.03983C3.14399 6.88671 3.33618 6.26327 3.50024 5.84608C3.71587 5.29296 3.96899 4.89921 4.38149 4.48671C4.79399 4.07421 5.18774 3.81639 5.74087 3.60546C6.15806 3.44608 6.78149 3.24921 7.93462 3.19764C9.18149 3.13671 9.55181 3.12733 12.7065 3.12733ZM12.7065 0.999207C9.50024 0.999207 9.09712 1.01327 7.83618 1.06952C6.57993 1.12577 5.72212 1.32733 4.97212 1.61796C4.19399 1.91796 3.53774 2.32577 2.88149 2.98202C2.22524 3.63827 1.82212 4.29921 1.51743 5.07264C1.22681 5.82264 1.02524 6.68046 0.968994 7.94139C0.912744 9.19764 0.898682 9.60077 0.898682 12.807C0.898682 16.0133 0.912744 16.4164 0.968994 17.6773C1.02524 18.9336 1.22681 19.7914 1.51743 20.5461C1.81743 21.3242 2.22524 21.9805 2.88149 22.6367C3.53774 23.293 4.19868 23.6961 4.97212 24.0008C5.72212 24.2914 6.57993 24.493 7.84087 24.5492C9.10181 24.6055 9.50024 24.6195 12.7112 24.6195C15.9221 24.6195 16.3206 24.6055 17.5815 24.5492C18.8377 24.493 19.6956 24.2914 20.4502 24.0008C21.2284 23.7008 21.8846 23.293 22.5409 22.6367C23.1971 21.9805 23.6002 21.3195 23.9049 20.5461C24.1956 19.7961 24.3971 18.9383 24.4534 17.6773C24.5096 16.4164 24.5237 16.018 24.5237 12.807C24.5237 9.59608 24.5096 9.19764 24.4534 7.93671C24.3971 6.68046 24.1956 5.82264 23.9049 5.06796C23.6049 4.28983 23.1971 3.63358 22.5409 2.97733C21.8846 2.32108 21.2237 1.91796 20.4502 1.61327C19.7002 1.32264 18.8424 1.12108 17.5815 1.06483C16.3159 1.01327 15.9127 0.999207 12.7065 0.999207Z"/><path d="M12.7065 6.74139C9.35962 6.74139 6.64087 9.45546 6.64087 12.807C6.64087 16.1586 9.35962 18.8726 12.7065 18.8726C16.0534 18.8726 18.7721 16.1539 18.7721 12.807C18.7721 9.46014 16.0534 6.74139 12.7065 6.74139ZM12.7065 16.7445C10.5315 16.7445 8.76899 14.982 8.76899 12.807C8.76899 10.632 10.5315 8.86952 12.7065 8.86952C14.8815 8.86952 16.644 10.632 16.644 12.807C16.644 14.982 14.8815 16.7445 12.7065 16.7445Z"/><path d="M19.0111 7.91798C19.7929 7.91798 20.4267 7.28418 20.4267 6.50236C20.4267 5.72053 19.7929 5.08673 19.0111 5.08673C18.2293 5.08673 17.5955 5.72053 17.5955 6.50236C17.5955 7.28418 18.2293 7.91798 19.0111 7.91798Z"/></g><defs><clipPath id="cclip0_39_42"><rect transform="translate(0.706543 0.807129)"/></clipPath></defs></svg><svg xml:space="preserve" style="shape-rendering:geometricPrecision;text-rendering:geometricPrecision;image-rendering:optimizeQuality;fill-rule:evenodd;clip-rule:evenodd" viewBox="0 0 2048 2048" id="star" xmlns="http://www.w3.org/2000/svg"><defs/><g id="dLayer_x0020_1"><metadata id="dCorelCorpID_0Corel-Layer"/><g id="d_388177552"><rect id="d_388174360"/><rect id="d_388174480" x="255.999" y="255.999"/></g><polygon points="1052.59,378.09 1207.44,841.592 1702.81,850.372 1792,851.953 1720.36,904.914 1327.36,1195.43 1472.13,1669.38 1498.15,1754.58 1425.65,1702.82 1027.9,1418.83 621.913,1702.94 548.807,1754.1 575.672,1669.03 722.822,1203.08 327.203,904.796 255.999,851.109 345.226,850.372 833.754,846.335 995.205,377.854 1024.3,293.414 "/></g></svg></svg>