<?xml version="1.0" encoding="utf-8"?><svg viewBox="0 0 426 628" xmlns="http://www.w3.org/2000/svg" xmlns:xlink="http://www.w3.org/1999/xlink"><style>:root>svg{display:none}:root>svg:target{display:block}</style><svg fill="none" viewBox="0 0 175 123" id="adoption" xmlns="http://www.w3.org/2000/svg"><path d="M1.734 51.887c-8.816 31.591 17.958 55.198 35.943 65.168 2.981 1.653 6.273 2.708 9.636 3.263 89.516 14.769 150.573-62.137 117.921-81.431-22-13-47.5-29.5-68.5-37s-83 7-95 50Z" fill="#C4C267"/><path d="M56.201 94.995h47.596a3.4 3.4 0 0 0 3.4-3.4v-37.9l1.443 1.02a3.4 3.4 0 1 0 3.913-5.561l-11.022-7.762V30.4a3.4 3.4 0 0 0-3.4-3.4h-4.533a3.4 3.4 0 0 0-3.4 3.4v3.02l-8.243-5.801a3.412 3.412 0 0 0-3.913 0L47.444 49.15a3.4 3.4 0 1 0 3.915 5.56l1.442-1.015v37.9a3.4 3.4 0 0 0 3.4 3.399ZM92.465 30.4c0-.626.507-1.133 1.133-1.133h4.533c.626 0 1.133.507 1.133 1.133v9.399l-6.799-4.785V30.4ZM50.053 52.859a1.133 1.133 0 0 1-1.303-1.855l30.598-21.531a1.14 1.14 0 0 1 1.304 0l30.598 21.532a1.132 1.132 0 1 1-1.305 1.852L80.652 32.245a1.133 1.133 0 0 0-1.305 0L50.053 52.859Zm5.015-.758 24.931-17.544L104.931 52.1v39.494c0 .626-.508 1.133-1.134 1.133H56.201a1.133 1.133 0 0 1-1.133-1.133V52.101Z" fill="#fff"/><path d="M57.334 63.49c0 9.005 5.842 21.458 22.308 26.917.232.077.482.077.714 0 16.466-5.463 22.308-17.915 22.308-26.916 0-8.386-5.226-14.96-11.899-14.96a15.5 15.5 0 0 0-10.766 4.426 15.5 15.5 0 0 0-10.766-4.425c-6.672 0-11.899 6.573-11.899 14.959Zm11.9-12.692a13.426 13.426 0 0 1 9.875 4.525 1.133 1.133 0 0 0 1.778 0 13.426 13.426 0 0 1 9.878-4.525c5.402 0 9.633 5.573 9.633 12.693 0 8.185-5.353 19.507-20.399 24.645-15.046-5.141-20.398-16.463-20.398-24.645 0-7.12 4.23-12.693 9.632-12.693Z" fill="#fff"/><path d="M86.148 71.65C84.91 69.43 83.37 66.664 80 66.664c-3.37 0-4.91 2.766-6.149 4.986a14.588 14.588 0 0 1-1.397 2.213 6.388 6.388 0 0 0-1.074 6.375 3.983 3.983 0 0 0 3.85 2.291 7.165 7.165 0 0 0 2.802-.646 5.078 5.078 0 0 1 1.968-.487 5.078 5.078 0 0 1 1.969.487c.88.403 1.834.622 2.802.646 1.633.1 3.16-.807 3.853-2.288a6.388 6.388 0 0 0-1.074-6.374 14.587 14.587 0 0 1-1.4-2.217Zm.416 7.631a1.767 1.767 0 0 1-1.794.982 5.08 5.08 0 0 1-1.968-.488 7.164 7.164 0 0 0-2.803-.646 7.163 7.163 0 0 0-2.802.646 5.08 5.08 0 0 1-1.969.488 1.767 1.767 0 0 1-1.794-.978 4.116 4.116 0 0 1 .753-3.959 16.42 16.42 0 0 0 1.643-2.57c1.326-2.38 2.267-3.826 4.17-3.826 1.902 0 2.843 1.445 4.168 3.826a16.42 16.42 0 0 0 1.644 2.57 4.116 4.116 0 0 1 .752 3.959v-.004ZM69.867 61.742c.487 2.818 2.57 4.864 4.808 4.864.21 0 .418-.018.625-.053a4.178 4.178 0 0 0 2.957-2.32 6.785 6.785 0 0 0-1.326-7.656 3.966 3.966 0 0 0-6.522 1.133 6.484 6.484 0 0 0-.542 4.032Zm2.56-3.011a1.976 1.976 0 0 1 1.327-1.116c.082-.013.165-.019.248-.017.52.032 1.01.256 1.376.627a4.533 4.533 0 0 1 .861 4.977c-.246.556-.735.969-1.326 1.117-1.206.215-2.499-1.147-2.814-2.964a4.284 4.284 0 0 1 .328-2.624ZM71.943 68.84a4.283 4.283 0 0 0-5.132-3.151 3.714 3.714 0 0 0-2.328 2.193 5.027 5.027 0 0 0 1.856 5.978 3.862 3.862 0 0 0 2.106.648c.357 0 .713-.054 1.055-.161a3.712 3.712 0 0 0 2.329-2.193 4.887 4.887 0 0 0 .114-3.313Zm-2.208 2.445a1.385 1.385 0 0 1-2.163.672 2.767 2.767 0 0 1-.997-3.206c.152-.42.485-.749.906-.898.121-.037.247-.056.373-.056a2.26 2.26 0 0 1 1.927 1.716 2.656 2.656 0 0 1-.046 1.772ZM84.739 66.55c.205.036.414.054.623.054 2.24 0 4.32-2.047 4.81-4.864a6.501 6.501 0 0 0-.54-4.029 4.18 4.18 0 0 0-2.96-2.32c-2.456-.42-4.9 1.732-5.432 4.81-.532 3.08 1.035 5.924 3.499 6.35Zm1.296-8.952c.084 0 .167.007.25.021.59.148 1.079.56 1.325 1.116.382.818.497 1.734.328 2.62-.314 1.814-1.605 3.174-2.813 2.964-1.208-.21-1.969-1.92-1.655-3.74.294-1.687 1.432-2.981 2.565-2.981ZM93.188 65.69a4.282 4.282 0 0 0-5.133 3.15 4.887 4.887 0 0 0 .114 3.314 3.713 3.713 0 0 0 2.329 2.193c.341.107.697.161 1.055.161a3.862 3.862 0 0 0 2.105-.648 5.027 5.027 0 0 0 1.857-5.978 3.714 3.714 0 0 0-2.327-2.193Zm.279 4.832a2.653 2.653 0 0 1-1.04 1.435 1.385 1.385 0 0 1-2.164-.672 2.656 2.656 0 0 1-.043-1.771c.365-1.174 1.414-1.927 2.295-1.66.421.148.754.477.906.897.218.568.234 1.193.046 1.771Z" fill="#fff"/></svg><svg fill="none" viewBox="0 0 101 233" id="decore1" xmlns="http://www.w3.org/2000/svg"><path d="M47.74 49.922C78.94 39.626 103.381 12.35 111.701 0v232.059c-4.81 0-18.72-4.836-35.882-24.181-21.45-24.181-7.8-42.511-21.06-61.622-10.555-15.211-46.022-83.464-7.02-96.334Z" fill="#3DA9FC"/><path d="M47.28 97.108a4.14 4.14 0 0 0-2.651-2.982 4.14 4.14 0 0 0-3.94.623l-2.717 2.095c-.45.348-.77.821-.925 1.37a2.614 2.614 0 0 0 .072 1.65c.203.532.564.975 1.044 1.282.48.306 1.034.447 1.602.407l.038-.003a5.172 5.172 0 0 1 3.873 1.403 2.63 2.63 0 0 0 4.22-.857c.228-.522.28-1.09.153-1.645l-.77-3.343ZM39.416 94.29c.59-.014 1.133-.29 1.53-.78a2.607 2.607 0 0 0 .563-1.709 2.61 2.61 0 0 0-.644-1.68c-.42-.469-.975-.72-1.564-.706-1.185.028-2.124 1.144-2.093 2.489.026 1.07.66 1.967 1.516 2.274.218.078.45.117.692.112ZM43.56 93.37c1.302.465 2.794-.362 3.325-1.846.53-1.483-.097-3.07-1.399-3.536-1.302-.466-2.793.362-3.324 1.846-.53 1.484.096 3.07 1.398 3.536ZM47.402 95.49c.176.138.37.243.573.316.95.34 2.122-.02 2.855-.956.422-.539.64-1.19.614-1.834-.027-.674-.316-1.259-.812-1.648-.497-.389-1.134-.529-1.795-.394a2.802 2.802 0 0 0-1.634 1.034c-.89 1.137-.8 2.699.199 3.482ZM52.487 96.956c-.66-.986-2.107-1.179-3.224-.431-1.116.748-1.488 2.158-.829 3.143.24.359.585.613.98.755.69.246 1.533.151 2.244-.324 1.116-.749 1.488-2.158.829-3.143ZM25.784 95.306a4.14 4.14 0 0 0-2.65-2.982 4.14 4.14 0 0 0-3.941.623l-2.717 2.096c-.45.347-.77.82-.925 1.368a2.614 2.614 0 0 0 .073 1.651c.203.532.563.975 1.043 1.282.48.306 1.034.447 1.602.407l.038-.003a5.172 5.172 0 0 1 3.873 1.403 2.63 2.63 0 0 0 4.22-.857c.228-.521.281-1.09.154-1.645l-.77-3.343ZM17.92 92.488c.59-.014 1.134-.29 1.53-.78a2.607 2.607 0 0 0 .563-1.709 2.609 2.609 0 0 0-.643-1.68c-.42-.469-.976-.72-1.565-.706-1.184.028-2.123 1.144-2.092 2.489.026 1.07.66 1.968 1.515 2.274.219.078.451.117.692.112ZM22.065 91.568c1.302.466 2.793-.362 3.324-1.846.53-1.483-.096-3.07-1.398-3.535-1.302-.466-2.793.362-3.325 1.846-.53 1.483.097 3.069 1.399 3.535ZM25.906 93.688c.177.138.37.243.573.316.95.34 2.123-.02 2.856-.956.422-.538.64-1.19.614-1.834-.028-.673-.316-1.259-.813-1.648-.496-.389-1.134-.529-1.795-.394a2.803 2.803 0 0 0-1.633 1.035c-.89 1.136-.801 2.698.198 3.481ZM30.991 95.154c-.66-.985-2.106-1.178-3.223-.43-1.116.747-1.488 2.157-.83 3.142.241.36.586.613.981.755.69.247 1.532.151 2.243-.324 1.117-.748 1.489-2.158.83-3.143ZM32.593 120.993a4.139 4.139 0 0 0-2.65-2.981 4.14 4.14 0 0 0-3.94.622l-2.717 2.096a2.61 2.61 0 0 0-.925 1.369 2.615 2.615 0 0 0 .072 1.651c.203.532.564.975 1.044 1.281a2.61 2.61 0 0 0 1.602.407l.038-.002a5.171 5.171 0 0 1 3.873 1.402 2.6 2.6 0 0 0 1.496.702 2.617 2.617 0 0 0 1.62-.329 2.612 2.612 0 0 0 1.104-1.229 2.616 2.616 0 0 0 .153-1.646l-.77-3.343ZM24.73 118.175c.59-.014 1.133-.29 1.53-.78a2.606 2.606 0 0 0 .563-1.708 2.61 2.61 0 0 0-.643-1.68c-.42-.469-.976-.72-1.565-.706-1.185.028-2.123 1.144-2.092 2.488.026 1.071.66 1.968 1.515 2.274.218.078.451.118.692.112ZM28.875 117.255c1.302.466 2.793-.362 3.324-1.845.53-1.484-.097-3.07-1.399-3.536-1.302-.466-2.793.362-3.324 1.846-.53 1.483.097 3.069 1.399 3.535ZM32.716 119.375v.001c.177.138.37.243.573.315.95.34 2.122-.02 2.856-.955.422-.539.64-1.19.613-1.834-.027-.674-.316-1.259-.812-1.648-.497-.389-1.134-.529-1.795-.395a2.804 2.804 0 0 0-1.633 1.035c-.89 1.136-.802 2.698.198 3.481ZM37.801 120.841c-.66-.985-2.106-1.178-3.223-.431-1.117.749-1.489 2.159-.83 3.143.24.36.586.614.981.755.69.247 1.532.152 2.243-.324 1.116-.748 1.488-2.158.83-3.143ZM59.266 123.214a4.142 4.142 0 0 0-2.65-2.982 4.143 4.143 0 0 0-3.941.623l-2.717 2.096c-.45.347-.77.821-.925 1.369a2.612 2.612 0 0 0 .073 1.65c.203.532.563.976 1.043 1.282a2.61 2.61 0 0 0 1.602.407l.038-.003a5.172 5.172 0 0 1 3.873 1.403 2.614 2.614 0 0 0 1.496.702 2.617 2.617 0 0 0 1.62-.329 2.617 2.617 0 0 0 1.104-1.229 2.616 2.616 0 0 0 .154-1.646l-.77-3.343ZM51.402 120.396c.59-.014 1.134-.29 1.53-.78a2.606 2.606 0 0 0 .563-1.708 2.61 2.61 0 0 0-.643-1.68c-.42-.47-.975-.72-1.565-.706-1.184.028-2.123 1.144-2.092 2.488.026 1.071.66 1.968 1.515 2.274.219.078.451.118.692.112ZM55.547 119.476c1.302.466 2.793-.362 3.324-1.845.531-1.484-.096-3.07-1.398-3.536-1.302-.466-2.793.362-3.324 1.846-.531 1.483.096 3.069 1.398 3.535ZM59.388 121.596c.177.139.37.244.574.316.949.34 2.122-.02 2.855-.956a2.8 2.8 0 0 0 .614-1.833c-.028-.674-.316-1.259-.813-1.648-.496-.389-1.134-.529-1.794-.395a2.804 2.804 0 0 0-1.634 1.035c-.89 1.136-.801 2.698.198 3.481ZM64.473 123.062c-.66-.985-2.106-1.178-3.223-.431-1.116.749-1.488 2.159-.83 3.143.241.36.586.614.981.755.69.247 1.532.152 2.243-.324 1.116-.748 1.488-2.158.83-3.143Z" fill="#094067" fill-opacity=".8"/></svg><svg fill="none" viewBox="0 0 109 259" id="decore2" xmlns="http://www.w3.org/2000/svg"><path d="M0 259V0c16.555 0 51.342 42.77 42.14 67.261-17.558 46.734 22.576 16.597 35.619 87.79C88.194 212.004 30.267 248.081 0 259Z" fill="#9A9945"/><path d="M92.113 147.558a5.308 5.308 0 0 0-3.398-3.823 5.307 5.307 0 0 0-5.052.799l-3.482 2.686a3.354 3.354 0 0 0-1.186 1.755 3.354 3.354 0 0 0 .093 2.117c.26.682.723 1.25 1.338 1.643a3.352 3.352 0 0 0 2.053.522l.05-.004a6.632 6.632 0 0 1 4.965 1.798 3.355 3.355 0 0 0 1.918.9 3.353 3.353 0 0 0 2.076-.422 3.347 3.347 0 0 0 1.415-1.576 3.35 3.35 0 0 0 .197-2.109l-.987-4.286ZM82.032 143.945c.757-.017 1.453-.372 1.962-1 .485-.596.74-1.374.722-2.19-.02-.815-.313-1.58-.825-2.153-.538-.602-1.25-.924-2.006-.906-1.519.036-2.722 1.467-2.682 3.191.033 1.372.845 2.522 1.942 2.914.28.101.579.151.887.144ZM87.346 142.765c1.669.598 3.58-.463 4.261-2.365.681-1.902-.123-3.936-1.792-4.533-1.67-.597-3.581.464-4.262 2.366-.68 1.902.124 3.935 1.793 4.532ZM92.27 145.484c.227.177.474.312.735.405 1.217.436 2.72-.026 3.66-1.226.542-.69.822-1.525.788-2.35-.035-.864-.405-1.615-1.042-2.113-.636-.499-1.454-.678-2.3-.506-.81.165-1.554.636-2.095 1.327-1.141 1.456-1.027 3.459.254 4.463ZM98.79 147.363v-.001c-.848-1.262-2.7-1.51-4.133-.551-1.43.959-1.908 2.767-1.063 4.029.308.461.75.786 1.257.968.884.316 1.964.194 2.876-.415 1.43-.96 1.907-2.767 1.063-4.03ZM58.281 161.693a5.308 5.308 0 0 0-3.398-3.823 5.307 5.307 0 0 0-5.052.799l-3.482 2.686a3.353 3.353 0 0 0-1.186 1.755 3.35 3.35 0 0 0 .093 2.116c.26.682.722 1.25 1.338 1.643a3.346 3.346 0 0 0 2.053.522l.05-.003a6.628 6.628 0 0 1 4.964 1.798 3.356 3.356 0 0 0 1.918.899 3.352 3.352 0 0 0 2.077-.421 3.347 3.347 0 0 0 1.415-1.576c.293-.669.36-1.398.197-2.11l-.987-4.285ZM48.2 158.08c.756-.018 1.453-.373 1.962-1 .484-.597.74-1.374.721-2.19-.02-.815-.312-1.58-.824-2.153-.538-.602-1.251-.924-2.006-.906-1.52.036-2.722 1.466-2.683 3.19.034 1.373.846 2.523 1.943 2.915.28.1.578.151.887.144ZM53.513 156.9c1.67.598 3.581-.463 4.262-2.365.68-1.902-.123-3.936-1.793-4.533-1.669-.598-3.58.464-4.261 2.366-.68 1.902.123 3.935 1.792 4.532ZM58.438 159.619c.227.177.474.311.735.405 1.217.435 2.72-.026 3.66-1.226.542-.69.821-1.525.787-2.351-.035-.864-.405-1.614-1.041-2.112-.637-.499-1.454-.679-2.301-.506-.81.165-1.553.636-2.094 1.326-1.141 1.457-1.027 3.459.254 4.464ZM64.957 161.498v-.001c-.847-1.262-2.7-1.51-4.132-.551-1.431.959-1.908 2.766-1.063 4.029.308.46.75.786 1.257.967.883.317 1.964.195 2.875-.415 1.431-.959 1.908-2.767 1.063-4.029ZM57.281 113.693a5.308 5.308 0 0 0-3.398-3.823 5.31 5.31 0 0 0-5.052.799l-3.482 2.686a3.353 3.353 0 0 0-1.186 1.755 3.352 3.352 0 0 0 .093 2.117c.26.682.722 1.25 1.338 1.643a3.352 3.352 0 0 0 2.053.522l.05-.004a6.632 6.632 0 0 1 4.964 1.798 3.356 3.356 0 0 0 1.918.9 3.346 3.346 0 0 0 2.077-.422 3.346 3.346 0 0 0 1.415-1.576 3.35 3.35 0 0 0 .197-2.109l-.987-4.286ZM47.2 110.08c.756-.017 1.453-.372 1.962-.999.485-.597.74-1.375.721-2.191-.02-.815-.312-1.58-.824-2.153-.538-.602-1.251-.924-2.006-.906-1.52.036-2.722 1.467-2.683 3.191.034 1.372.846 2.522 1.943 2.915.28.1.578.151.887.143ZM52.513 108.901c1.67.597 3.581-.464 4.262-2.366.68-1.902-.123-3.936-1.793-4.533-1.669-.597-3.58.464-4.261 2.367-.68 1.901.123 3.934 1.792 4.532ZM57.438 111.619c.227.177.474.312.735.405 1.217.436 2.72-.026 3.66-1.225.542-.691.821-1.526.788-2.351-.036-.864-.406-1.615-1.042-2.113-.637-.499-1.454-.678-2.301-.506-.81.165-1.553.636-2.094 1.327-1.141 1.457-1.027 3.459.254 4.463ZM63.957 113.498c-.846-1.262-2.7-1.51-4.132-.552-1.431.959-1.908 2.767-1.063 4.029.308.461.75.786 1.257.968.884.316 1.964.194 2.875-.415 1.431-.96 1.908-2.767 1.063-4.03Z" fill="#094067" fill-opacity=".8"/></svg><svg fill="none" viewBox="0 0 426 628" id="decore3" xmlns="http://www.w3.org/2000/svg"><path d="M362.4 255.119c-39.687-.887-76.614 18.241-98.776 51.172-22.162 32.93-25.978 74.342-10.211 110.772l37.989 87.789c6.301 14.565 16.901 26.462 30.643 34.401 13.745 7.941 29.344 11.176 45.118 9.362 15.769-1.826 30.223-8.535 41.799-19.4 11.577-10.865 19.181-24.871 21.997-40.498l.185-1.049c7.349-39.142 30.806-73.736 64.486-95.045 8.687-5.498 15.989-12.602 21.607-20.949a73.927 73.927 0 0 0 7.625-14.667c5.709-14.814 6.482-30.729 2.235-46.031-4.248-15.293-13.119-28.531-25.652-38.279-12.534-9.748-27.544-15.086-43.415-15.444l-95.63-2.134ZM232.267 448.289c3.681-16.034-.072-32.623-10.569-46.71-9.987-13.407-25.013-22.972-42.313-26.931-17.293-3.95-34.981-1.869-49.808 5.857-15.573 8.119-26.171 21.42-29.828 37.439-7.383 32.211 16.336 65.236 52.892 73.626 29.118 6.645 57.703-4.323 71.848-25.342a53.273 53.273 0 0 0 7.778-17.939ZM235.849 329.96c21.529-31.99 9.393-77.972-27.054-102.501-36.456-24.535-83.63-18.468-105.16 13.523-21.527 31.987-9.383 77.97 27.073 102.505 36.448 24.529 83.613 18.461 105.141-13.527ZM319.52 240.693l.002-.003a56.998 56.998 0 0 0 12.468-13.316c15.701-23.33 14.022-57.494-6.236-83.732-11.659-15.106-27.764-25.467-45.344-29.173-18.403-3.882-36.201-.102-50.119 10.644-13.92 10.75-22.077 27.016-22.978 45.801-.86 17.946 5.092 36.146 16.756 51.245 24.601 31.859 67.42 40.173 95.451 18.534ZM394.031 113.33l-.016.003c-31.143 11.094-46.284 48.841-33.747 84.157 12.561 35.305 48.115 55.034 79.248 43.981 11.358-4.028 20.591-11.606 27.129-21.321 11.396-16.933 14.609-40.365 6.642-62.837-12.564-35.303-48.115-55.034-79.256-43.983Z" fill="#094067" fill-opacity=".02"/></svg><svg fill="none" viewBox="0 0 94 254" id="decore4" xmlns="http://www.w3.org/2000/svg"><path d="M54.86 13.502C86.084 7.172 92.834 1.688 105.07 0v254c-69.196-24.894-94.934-91.98-93.246-112.233 1.688-20.252 7.595-36.285-8.017-72.571-15.61-36.286 19.83-49.365 51.054-55.694Z" fill="#CE7D45"/></svg><svg fill="none" viewBox="0 0 79 259" id="decore5" xmlns="http://www.w3.org/2000/svg"><path d="M0 259V0c16.555 0 51.342 42.77 42.14 67.261-17.558 46.734 22.576 16.597 35.619 87.79C88.194 212.004 30.267 248.081 0 259Z" fill="#3DA9FC"/></svg><svg fill="none" viewBox="0 0 290 312" id="decore6" xmlns="http://www.w3.org/2000/svg"><path d="M148.978 200.001c14.292-16.218 19.279-38.308 13.338-59.091-5.94-20.783-21.849-36.899-42.553-43.112l-49.89-14.975c-8.277-2.485-16.951-2.244-25.079.694-8.129 2.939-14.948 8.301-19.726 15.507-4.772 7.209-7.048 15.582-6.584 24.215.464 8.633 3.63 16.714 9.15 23.368l.372.445c13.725 16.793 19.904 38.699 16.964 60.201-.757 5.547-.36 11.081 1.145 16.348a40.207 40.207 0 0 0 3.434 8.321c4.167 7.575 10.525 13.48 18.387 17.079 7.86 3.596 16.486 4.545 24.942 2.745 8.457-1.8 15.946-6.179 21.663-12.664l34.437-39.081ZM114.172 78.034c5.387 7.158 13.613 11.414 23.162 11.984 9.088.544 18.343-2.359 26.061-8.175 7.712-5.817 13.05-13.914 15.033-22.8 2.082-9.334.26-18.414-5.129-25.557-10.825-14.375-32.901-16.081-49.219-3.799-12.983 9.796-18.443 25.55-14.651 38.814a29.017 29.017 0 0 0 4.743 9.533ZM162.199 121.036c5.771 20.19 29.18 31.266 52.182 24.691 23.007-6.577 37.029-28.353 31.258-48.542-5.77-20.188-29.182-31.26-52.19-24.684-23.002 6.575-37.021 28.348-31.25 48.535ZM170.026 187.201v.002c-.143 3.4.27 6.709 1.172 9.864 4.209 14.724 19.027 26.009 37.062 26.777 10.382.443 20.347-2.63 28.057-8.652 8.073-6.303 12.742-15.041 13.149-24.608.406-9.569-3.507-18.673-11.015-25.638-7.172-6.653-16.841-10.559-27.221-10.998-21.899-.93-40.383 13.987-41.204 33.253ZM196.933 262.914l.004-.008c6.305-16.862-4.105-36.411-23.212-43.578-19.111-7.154-39.8.733-46.119 17.577-2.307 6.144-2.39 12.648-.637 18.779 3.055 10.686 11.687 20.245 23.842 24.81 19.11 7.152 39.8-.733 46.122-17.58Z" fill="#fff" fill-opacity=".03"/></svg><svg fill="none" viewBox="0 0 332 341" id="decore7" xmlns="http://www.w3.org/2000/svg"><path d="M196.84 138.57c-21.556-.482-41.614 9.907-53.651 27.794-12.038 17.886-14.11 40.379-5.546 60.166l20.634 47.684c3.422 7.911 9.18 14.373 16.644 18.685 7.466 4.313 15.938 6.07 24.506 5.085 8.565-.992 16.416-4.636 22.703-10.537 6.288-5.902 10.419-13.509 11.948-21.997l.1-.57c3.993-21.26 16.733-40.05 35.027-51.624 4.718-2.987 8.684-6.845 11.736-11.379a40.217 40.217 0 0 0 4.141-7.966c3.101-8.046 3.521-16.691 1.214-25.002-2.307-8.307-7.126-15.497-13.933-20.792-6.808-5.294-14.961-8.194-23.581-8.388l-51.942-1.159ZM126.157 243.491c2-8.709-.039-17.719-5.74-25.371-5.425-7.282-13.586-12.477-22.983-14.627-9.393-2.146-19-1.016-27.054 3.181-8.458 4.409-14.214 11.634-16.201 20.335-4.01 17.496 8.873 35.434 28.729 39.99 15.815 3.61 31.342-2.348 39.025-13.764a28.923 28.923 0 0 0 4.224-9.744ZM128.103 179.22c11.694-17.376 5.102-42.351-14.695-55.674-19.801-13.326-45.424-10.031-57.118 7.345-11.693 17.374-5.096 42.35 14.705 55.676 19.797 13.323 45.415 10.027 57.108-7.347ZM173.549 130.734l.001-.002a30.966 30.966 0 0 0 6.773-7.233c8.528-12.671 7.616-31.228-3.387-45.48-6.333-8.204-15.081-13.832-24.63-15.844-9.995-2.11-19.662-.056-27.222 5.781-7.561 5.839-11.991 14.674-12.48 24.877-.468 9.747 2.765 19.633 9.1 27.834 13.363 17.304 36.62 21.82 51.845 10.067ZM214.02 61.556l-.008.001c-16.916 6.026-25.14 26.529-18.33 45.711 6.823 19.176 26.134 29.892 43.044 23.889 6.169-2.188 11.184-6.304 14.736-11.581 6.189-9.197 7.934-21.925 3.607-34.13-6.824-19.175-26.134-29.893-43.049-23.89Z" fill="#fff" fill-opacity=".03"/></svg><svg fill="none" viewBox="0 0 180 115" id="grooming" xmlns="http://www.w3.org/2000/svg"><path d="M25.734 4.28C43.017-4.773 71.477 2.769 84.91 6.558A45.292 45.292 0 0 0 97.81 8.236c50.034-.634 90.446-7.124 79.425 46.544-11.019 53.657-106 76.72-151.5 45.22s-21-84.72 0-95.72Z" fill="#3DA9FC"/><path d="M82.441 42.342c.733 0 1.329-.956 1.329-2.131 0-1.175-.596-2.131-1.329-2.131-.732 0-1.328.956-1.328 2.13 0 1.176.596 2.132 1.328 2.132ZM95.731 42.342c.732 0 1.328-.956 1.328-2.131 0-1.175-.596-2.131-1.328-2.131-.732 0-1.328.956-1.328 2.13 0 1.176.596 2.132 1.328 2.132Z" fill="#fff"/><path d="M112.293 60.674c.319-.645.49-1.36.49-2.088a4.748 4.748 0 0 0-2.317-4.056 3.506 3.506 0 0 0-3.158-4.194 4.685 4.685 0 0 0-3.451-3.396v-5.653a4.138 4.138 0 0 0 1.807-1.06l2.625-2.625a4.15 4.15 0 0 0 0-5.862l-5.526-5.525A4.118 4.118 0 0 0 99.833 25a4.118 4.118 0 0 0-2.932 1.215 4.145 4.145 0 0 0-1.12 2.075 9.358 9.358 0 0 0-1.194-.077H83.585c-.4 0-.798.026-1.194.077a4.146 4.146 0 0 0-1.12-2.076A4.122 4.122 0 0 0 78.34 25a4.12 4.12 0 0 0-2.93 1.214l-5.527 5.526a4.152 4.152 0 0 0 0 5.862l2.626 2.624a4.124 4.124 0 0 0 1.806 1.058v5.656a4.68 4.68 0 0 0-3.45 3.396 3.506 3.506 0 0 0-3.16 4.194 4.747 4.747 0 0 0-2.315 4.056c0 .73.17 1.445.49 2.09a3.398 3.398 0 0 0-.719 5.351 3.37 3.37 0 0 0 1.794.94l2.747 8.093a9.064 9.064 0 0 0 8.586 6.153h21.596a9.066 9.066 0 0 0 8.587-6.153l2.747-8.094a3.402 3.402 0 0 0 2.788-3.341 3.38 3.38 0 0 0-1.713-2.951ZM98.065 27.379a2.482 2.482 0 0 1 1.767-.732c.667 0 1.295.26 1.767.732l5.525 5.525c.974.974.974 2.56 0 3.533l-2.624 2.625c-.61.61-1.476.86-2.316.67a2.486 2.486 0 0 1-1.805-1.599l-2.9-8.15a2.51 2.51 0 0 1 .587-2.604Zm-2.298 2.572a4.1 4.1 0 0 0 .16.585l2.9 8.15a4.124 4.124 0 0 0 3.383 2.72v6.055a7.626 7.626 0 0 1-3.102 6.139l.002-.103v-4.852a5.396 5.396 0 0 0-4.92-5.368 3.171 3.171 0 0 0-2.145-1.697V29.86h2.542c.396 0 .79.03 1.18.091ZM89.91 53.498a.824.824 0 0 0-1.647 0 3.756 3.756 0 0 1-1.106 2.67 3.756 3.756 0 0 1-2.67 1.106 3.781 3.781 0 0 1-3.778-3.776v-4.853a3.75 3.75 0 0 1 2.97-3.662 3.165 3.165 0 0 0 3.05 2.838v.566a2.36 2.36 0 0 0 2.357 2.356 2.36 2.36 0 0 0 2.357-2.357v-.565a3.165 3.165 0 0 0 3.05-2.838 3.75 3.75 0 0 1 2.97 3.662v4.852a3.755 3.755 0 0 1-1.105 2.67 3.756 3.756 0 0 1-2.671 1.107 3.781 3.781 0 0 1-3.777-3.776Zm.268 4.132c-.353.093-.72.143-1.092.143-.371 0-.737-.05-1.09-.142a5.47 5.47 0 0 0 1.092-1.26c.297.474.666.898 1.09 1.259Zm-3.355-14.48h4.527c.834 0 1.513.678 1.513 1.512 0 .835-.679 1.514-1.513 1.514h-.73a.823.823 0 0 0-.824.823v1.387a.71.71 0 0 1-1.42 0V47a.823.823 0 0 0-.823-.824h-.73a1.515 1.515 0 0 1-1.514-1.513c0-.834.68-1.513 1.514-1.513Zm3.575-13.29v11.642h-2.624V29.86h2.624Zm-19.35 6.578a2.503 2.503 0 0 1 0-3.534l5.525-5.525a2.485 2.485 0 0 1 1.767-.732c.667 0 1.295.26 1.767.731.678.678.909 1.7.587 2.605l-2.348 6.598a.824.824 0 0 0 1.551.553l2.349-6.6c.068-.191.121-.386.16-.583.39-.06.784-.091 1.18-.091h2.54v11.72a3.172 3.172 0 0 0-2.143 1.697 5.396 5.396 0 0 0-4.92 5.368v4.853l.002.102a7.625 7.625 0 0 1-3.103-6.139v-6.054a4.13 4.13 0 0 0 2.237-1.013.823.823 0 1 0-1.093-1.232c-.868.771-2.389.944-3.433-.1l-2.625-2.624Zm-4.011 22.148c0-1.26.79-2.41 1.966-2.862a.824.824 0 0 0 .452-1.115 1.856 1.856 0 0 1 1.974-2.614.824.824 0 0 0 .945-.743 3.093 3.093 0 0 1 2.018-2.615 9.273 9.273 0 0 0 5.197 7.189 5.43 5.43 0 0 0 6.581 2.828 5.9 5.9 0 0 0 2.916.766 5.896 5.896 0 0 0 2.918-.767 5.4 5.4 0 0 0 1.683.268c1.447 0 2.81-.564 3.836-1.588a5.439 5.439 0 0 0 1.066-1.508 9.275 9.275 0 0 0 5.193-7.192 3.05 3.05 0 0 1 2.017 2.62.824.824 0 0 0 .946.742 1.857 1.857 0 0 1 1.973 2.612.824.824 0 0 0 .45 1.117 3.086 3.086 0 0 1 1.968 2.862c0 .585-.17 1.154-.481 1.643l-.046-.001h-5.958a2.844 2.844 0 0 0-2.787-2.301h-3.855a2.844 2.844 0 0 0-2.787 2.3H82.95a2.844 2.844 0 0 0-2.787-2.3h-3.855a2.844 2.844 0 0 0-2.787 2.3h-5.958l-.047.002a3.067 3.067 0 0 1-.48-1.643Zm36.019 2.18v1.008c0 .285-.221.53-.482.534a.485.485 0 0 1-.353-.14.487.487 0 0 1-.147-.35.824.824 0 0 0-1.647 0 .492.492 0 0 1-.982 0 .823.823 0 0 0-1.647 0 .487.487 0 0 1-.5.49c-.261-.005-.482-.25-.482-.534v-1.008c0-.657.535-1.192 1.193-1.192h3.854c.658 0 1.193.535 1.193 1.193Zm-21.7 0v1.008c0 .285-.22.53-.481.534a.488.488 0 0 1-.5-.49.823.823 0 0 0-1.648 0 .491.491 0 0 1-.981 0 .823.823 0 0 0-1.647 0 .488.488 0 0 1-.5.49c-.262-.005-.482-.25-.482-.534v-1.008c0-.657.535-1.192 1.192-1.192h3.855c.657 0 1.192.535 1.192 1.193Zm29.253 4.609h-5.113a.824.824 0 1 0 0 1.647h3.964l-2.549 7.508a7.417 7.417 0 0 1-7.027 5.036H78.288a7.418 7.418 0 0 1-7.027-5.035l-2.548-7.51h33.489a.823.823 0 1 0 0-1.646H67.564a1.74 1.74 0 0 1-1.239-.513c-.33-.33-.512-.77-.512-1.237 0-.965.785-1.75 1.75-1.75h5.912c.052 1.135.97 2.06 2.093 2.08.497.008.97-.15 1.355-.452a2.128 2.128 0 0 0 2.627 0c.385.302.857.46 1.355.452 1.123-.02 2.04-.945 2.093-2.08h12.176c.052 1.135.97 2.06 2.094 2.08.49.008.97-.15 1.355-.452a2.128 2.128 0 0 0 2.626 0c.385.302.859.46 1.355.452 1.124-.02 2.042-.945 2.094-2.08h5.911c.467 0 .907.182 1.238.511a1.752 1.752 0 0 1-1.238 2.988Z" fill="#fff"/><path d="M112.21 42.876a3.202 3.202 0 0 0-3.199 3.199 3.202 3.202 0 0 0 3.199 3.198 3.202 3.202 0 0 0 3.199-3.198 3.202 3.202 0 0 0-3.199-3.2Zm0 4.75a1.554 1.554 0 0 1-1.552-1.551c0-.856.697-1.552 1.552-1.552.856 0 1.552.696 1.552 1.552 0 .855-.696 1.551-1.552 1.551ZM114.483 32.278a4.356 4.356 0 0 0-4.352 4.351c0 2.4 1.952 4.351 4.352 4.351a4.356 4.356 0 0 0 4.351-4.351c0-2.4-1.952-4.351-4.351-4.351Zm0 7.056a2.708 2.708 0 0 1-2.705-2.705 2.708 2.708 0 0 1 2.705-2.704 2.707 2.707 0 0 1 2.704 2.704 2.707 2.707 0 0 1-2.704 2.705ZM70.542 42.755a3.858 3.858 0 0 0-3.854-3.854 3.858 3.858 0 0 0-3.854 3.854 3.858 3.858 0 0 0 3.854 3.854 3.858 3.858 0 0 0 3.854-3.854Zm-6.06 0a2.21 2.21 0 0 1 2.206-2.207 2.21 2.21 0 0 1 2.207 2.207 2.21 2.21 0 0 1-2.207 2.207 2.21 2.21 0 0 1-2.207-2.207Z" fill="#fff"/></svg><svg fill="none" viewBox="0 0 82 58" id="logo-footer" xmlns="http://www.w3.org/2000/svg"><path d="M56.517 4.624a9.316 9.316 0 0 0-15.5-.896l-.43.573-.43-.573A9.361 9.361 0 0 0 32.704.002h-.222a9.315 9.315 0 0 0-7.86 4.314A10.36 10.36 0 0 0 23 9.887v1.695a14.91 14.91 0 0 0 6.759 12.51l1 .655 4.111 2.694 5.396 3.535c.196.128.45.127.645-.002l10.565-6.997a14.92 14.92 0 0 0 6.697-12.47v-.755c0-2.153-.572-4.268-1.656-6.128ZM37.13 27.23l.216.432-4.712-3.087-1.233-.808-.336-.22 2.974-4.461a.586.586 0 0 0 .098-.325v-1.835l.002-.115c.033-.725.31-1.418.784-1.967l.095-.11.31 1.238c.065.26.299.444.568.444h1.404c.392 0 .758.196.975.522.4.601 1.019 1.022 1.725 1.174v.649c-.001.647-.526 1.171-1.173 1.172a.586.586 0 0 0-.586.586v2.133c0 .405-.12.801-.345 1.138l-.73 1.094a.586.586 0 0 0-.098.325v1.759c0 .09.022.18.062.262Zm2.283 1.786-.586-.384v-.492a.585.585 0 0 0-.062-.262l-.006-.013.654-.654v1.805Zm4.69-1.563-1.172.776v-3.313l1.172-.88v3.416Zm1.096-7.34a3.909 3.909 0 0 1-.913 2.321l-2.293 1.72a.586.586 0 0 0-.235.469v4.383l-1.172.776v-3.987a.586.586 0 0 0-1.001-.414l-1.344 1.344v-1.338l.63-.946a3.21 3.21 0 0 0 .542-1.79v-1.62a2.349 2.349 0 0 0 1.759-2.27v-1.173a.586.586 0 0 0-.586-.586 1.603 1.603 0 0 1-1.336-.714 2.34 2.34 0 0 0-.977-.834l.898-.897-.02.038 2.036 1.019c1.056.526 2.22.8 3.4.802h.254l.296 2.22c.066.49.086.983.062 1.476Zm-4.027-9.56v1.905a.44.44 0 0 1-.44.44H40v-1.046a5.344 5.344 0 0 1 1.576-3.804 1.456 1.456 0 0 1 1.027-.426h1.27c.367 0 .72.146.98.407l1.18 1.18c.11.11.26.172.415.172h1.172v.88a.88.88 0 0 1-.879.879h-1.465a.586.586 0 0 0-.587.586v3.517h-.102a6.46 6.46 0 0 1-2.875-.678l-.988-.494h.008c.89-.001 1.611-.723 1.613-1.613v-1.904h-1.173Zm15.828.954a13.751 13.751 0 0 1-6.173 11.492l-5.551 3.677v-3.6a5.08 5.08 0 0 0 1.094-2.905 9.282 9.282 0 0 0-.07-1.69l-.438-3.277v-2.892h.88a2.054 2.054 0 0 0 2.05-2.051V8.795a.586.586 0 0 0-.585-.586h-1.516l-1.009-1.01a2.543 2.543 0 0 0-1.81-.749h-1.269c-.696 0-1.364.277-1.856.769a6.51 6.51 0 0 0-1.92 4.633v1.39l-2.001 2.001h-.472l-.475-1.9a.586.586 0 0 0-1.016-.238l-.833.98a4.412 4.412 0 0 0-1.065 2.84v1.658l-1.637 2.455a14.663 14.663 0 0 1-2.654-2.57l-.527-.66a.586.586 0 0 0-.916.733l.528.66a15.836 15.836 0 0 0 2.918 2.814l-.59.885a13.74 13.74 0 0 1-5.916-11.318V9.887c0-1.75.499-3.465 1.44-4.941a8.143 8.143 0 0 1 6.87-3.772h.222a8.183 8.183 0 0 1 6.515 3.258l.899 1.197a.586.586 0 0 0 .938 0l.898-1.197a8.144 8.144 0 0 1 13.55.782A11 11 0 0 1 57 10.752v.755Z" fill="#3DA9FC"/><path d="M42.932 8.795h1.172v1.172h-1.172V8.795ZM36.483 17.588h1.173v1.173h-1.173v-1.173Z" fill="#3DA9FC"/><path d="M53.85 17.716a.586.586 0 0 0-.824.092l-.528.66a14.607 14.607 0 0 1-4.175 3.571l-1.578.902a.586.586 0 1 0 .58 1.019h.001l1.579-.903a15.772 15.772 0 0 0 4.509-3.857l.527-.66a.586.586 0 0 0-.09-.823ZM55.242 11.726a.586.586 0 0 0-.586.586v.193c0 .974-.157 1.942-.465 2.866l-.09.273a.586.586 0 1 0 1.108.382c0-.004.002-.007.003-.011l.091-.273c.349-1.044.526-2.137.526-3.237v-.193a.586.586 0 0 0-.587-.586ZM55.242 8.795a.586.586 0 0 0-.586.586v.586a.586.586 0 0 0 1.173 0v-.586a.586.586 0 0 0-.587-.586ZM26.982 15.371a9.046 9.046 0 0 1-.465-2.866v-.193a.586.586 0 0 0-1.172 0v.193c0 1.1.177 2.193.525 3.237l.091.273a.586.586 0 1 0 1.116-.36l-.004-.01-.09-.274ZM11.338 46.04c0 1.49-.488 2.633-1.465 3.427-.977.794-2.366 1.191-4.17 1.191H4.22V56H1.885V41.723h4.111c1.784 0 3.119.364 4.004 1.093.892.73 1.338 1.804 1.338 3.223Zm-7.12 2.655H5.46c1.198 0 2.077-.208 2.637-.625.56-.416.84-1.067.84-1.953 0-.82-.251-1.432-.752-1.836-.502-.403-1.283-.605-2.344-.605H4.219v5.02Zm14.444 7.5c-1.68 0-2.995-.488-3.945-1.465-.944-.983-1.416-2.333-1.416-4.052 0-1.765.44-3.151 1.318-4.16.879-1.01 2.087-1.514 3.623-1.514 1.426 0 2.552.433 3.38 1.299.826.866 1.24 2.057 1.24 3.574v1.24h-7.198c.033 1.048.316 1.856.85 2.422.534.56 1.285.84 2.256.84a8.48 8.48 0 0 0 1.777-.176 9.578 9.578 0 0 0 1.777-.605v1.865a7.049 7.049 0 0 1-1.699.566c-.573.111-1.227.166-1.963.166Zm-.42-9.453c-.729 0-1.315.231-1.758.694-.436.462-.696 1.136-.78 2.021h4.901c-.013-.892-.227-1.566-.644-2.022-.417-.462-.99-.693-1.719-.693Zm11.25 7.598c.56 0 1.12-.088 1.68-.264v1.729c-.254.11-.583.202-.986.273-.398.078-.811.117-1.24.117-2.175 0-3.262-1.145-3.262-3.437v-5.82h-1.475v-1.016l1.582-.84.781-2.285h1.416v2.402h3.076v1.739h-3.076v5.78c0 .554.137.964.41 1.231.28.26.645.39 1.094.39Zm15.361-10.82c-1.34 0-2.395.475-3.163 1.425-.769.95-1.153 2.263-1.153 3.936 0 1.751.368 3.076 1.104 3.974.742.899 1.813 1.348 3.212 1.348.606 0 1.192-.059 1.758-.176.567-.123 1.156-.28 1.768-.468v2.002c-1.12.423-2.39.634-3.809.634-2.09 0-3.694-.631-4.814-1.894-1.12-1.27-1.68-3.083-1.68-5.44 0-1.484.27-2.783.81-3.896.548-1.113 1.335-1.966 2.364-2.559 1.029-.592 2.236-.888 3.623-.888 1.458 0 2.806.306 4.043.917l-.84 1.944a11.908 11.908 0 0 0-1.533-.596 5.367 5.367 0 0 0-1.69-.264ZM57.97 56l-.46-1.504h-.077c-.521.658-1.045 1.107-1.573 1.348-.527.234-1.204.351-2.03.351-1.062 0-1.892-.286-2.491-.86-.593-.572-.889-1.383-.889-2.43 0-1.114.414-1.954 1.24-2.52.827-.567 2.087-.876 3.78-.928l1.865-.059v-.576c0-.69-.163-1.204-.488-1.543-.32-.345-.817-.517-1.494-.517-.554 0-1.084.081-1.592.244-.508.163-.996.355-1.465.576l-.742-1.64a7.846 7.846 0 0 1 1.924-.694 8.688 8.688 0 0 1 1.972-.244c1.374 0 2.41.3 3.106.898.703.6 1.054 1.54 1.054 2.823V56h-1.64Zm-3.418-1.563c.833 0 1.5-.23 2.002-.693.508-.469.762-1.123.762-1.963v-.937l-1.387.058c-1.081.04-1.869.222-2.363.547-.489.32-.733.81-.733 1.475 0 .482.143.856.43 1.123.286.26.716.39 1.289.39Zm13.74-9.433c.462 0 .843.032 1.143.098l-.225 2.138a4.339 4.339 0 0 0-1.016-.117c-.918 0-1.663.3-2.236.899-.566.598-.85 1.376-.85 2.334V56h-2.294V45.2h1.796l.303 1.903h.117a4.297 4.297 0 0 1 1.397-1.533 3.354 3.354 0 0 1 1.865-.566Zm7.871 11.191c-1.68 0-2.995-.488-3.945-1.465-.944-.983-1.416-2.333-1.416-4.052 0-1.765.44-3.151 1.318-4.16.879-1.01 2.087-1.514 3.623-1.514 1.426 0 2.552.433 3.38 1.299.826.866 1.24 2.057 1.24 3.574v1.24h-7.198c.033 1.048.316 1.856.85 2.422.534.56 1.285.84 2.255.84a8.48 8.48 0 0 0 1.778-.176 9.578 9.578 0 0 0 1.777-.605v1.865a7.049 7.049 0 0 1-1.699.566c-.573.111-1.227.166-1.963.166Zm-.42-9.453c-.729 0-1.315.231-1.758.694-.436.462-.696 1.136-.78 2.021h4.902c-.014-.892-.228-1.566-.645-2.022-.417-.462-.99-.693-1.719-.693Z" fill="#094067"/></svg><svg fill="none" viewBox="0 0 176 132" id="sitting" xmlns="http://www.w3.org/2000/svg"><path d="M9.576 101.049c-28.8-30.4 14-52.5 41-68 48.845-39 78.5-39.5 84-22s60.5 48 34 90-123 38-159 0Z" fill="#FCA158"/><path d="M80.346 56.057c-.137 2.427 1.997 4.408 4.452 4.408h.314c-4.214 3.953-13.797 13.324-15.643 18.434-.835 2.311-1.005 4.723-.538 6.962H58.096c-2.815.005-5.101 2.309-5.096 5.096C53.005 93.74 55.294 96 58.108 96H108.973c2.455 0 4.452-1.977 4.452-4.407V62.62l-.003-.063c.606-.65 1.157-1.35 1.647-2.092h3.472c2.455 0 4.589-1.981 4.453-4.408-.203-3.61-1.142-10.779-1.618-14.372-.315-2.376-2.021-4.334-4.452-4.334h-4.42c-.923 0-1.81.28-2.566.808a1.166 1.166 0 0 0-.092.072A16.02 16.02 0 0 0 101.67 36c-2.986 0-5.783.815-8.177 2.23-.03-.025-.06-.049-.092-.071a4.456 4.456 0 0 0-2.566-.808h-4.42c-2.43 0-4.195 1.95-4.452 4.334-.387 3.593-1.415 10.763-1.617 14.372Zm34.881-4.225a13.23 13.23 0 0 1-1.327 5.788 7.45 7.45 0 0 0-1.182-2.412c-1.158-1.54-2.904-2.563-5.319-3.108.006-.105.01-.21.01-.317 0-3.306-2.931-3.306-4.034-3.306-.262 0-.536.005-.819.011-.573.011-1.2.011-1.772 0a40.554 40.554 0 0 0-.82-.011c-1.103 0-4.033 0-4.033 3.306 0 .12.005.237.012.355-2.389.561-4.111 1.59-5.246 3.132-.53.72-.922 1.55-1.18 2.503a13.225 13.225 0 0 1-1.404-5.941c0-7.4 6.081-13.42 13.557-13.42 7.475 0 13.557 6.02 13.557 13.42Zm-14.776 5.502v3.792c0 .666.546 1.206 1.219 1.206.672 0 1.218-.54 1.218-1.206v-3.792a5.752 5.752 0 0 0 3.858-2.905c4.342.947 5.092 3.51 5.137 6.217a13.586 13.586 0 0 1-10.213 4.605c-4.005 0-7.61-1.728-10.093-4.47.023-2.724.71-5.333 5.033-6.32a5.753 5.753 0 0 0 3.841 2.873Zm1.219-2.282c-1.821 0-3.303-1.466-3.303-3.269 0-.722 0-.894 1.598-.894.246 0 .503.005.769.01.605.012 1.267.012 1.871 0 .266-.005.524-.01.77-.01 1.597 0 1.597.172 1.597.894 0 1.803-1.481 3.27-3.302 3.27ZM84.4 41.758c.112-1.095.904-1.995 2.015-1.995h4.42c.149 0 .296.017.438.048-3.424 2.906-5.597 7.217-5.597 12.02 0 2.208.46 4.311 1.287 6.222h-2.165c-1.091 0-2.06-.863-2.015-1.936.149-3.61 1.253-10.838 1.616-14.36Zm-10.855 48.02a10.097 10.097 0 0 1-.635-.801c-1.922-2.701-2.33-5.992-1.147-9.266.156-.433.382-.906.664-1.41 7.326.073 7.326 2.688 7.326 3.556 0 3.067-2.58 7.553-6.208 7.921ZM58.11 93.566h-.005c-1.469 0-2.665-1.16-2.668-2.614a2.688 2.688 0 0 1 2.668-2.681h11.6c.328.74.732 1.419 1.213 2.095a13.026 13.026 0 0 0 3.235 3.2H58.11Zm45.116.022h-6.908c.387-.653.61-1.412.61-2.222v-9.127l.003-.09c0-1.149.942-2.156 2.016-2.156h1.779c1.093 0 2.016.95 2.016 2.076v9.524c0 .718.175 1.395.484 1.995Zm-22.445-.1c-1.81-.228-3.549-.853-4.997-1.787 3.981-1.563 6.406-6.355 6.406-9.844 0-2.25-1.184-3.953-3.424-4.926-1.246-.541-2.827-.867-4.796-.99 4.273-5.836 12.768-13.699 14.457-15.242 2.879 4.2 7.74 6.964 13.242 6.964 3.475 0 6.694-1.103 9.32-2.973v26.903c0 1.1-.905 1.995-2.016 1.995h-1.779a2.008 2.008 0 0 1-2.016-1.995v-9.525c0-2.474-1.997-4.487-4.452-4.487h-1.779c-2.38 0-4.394 2.032-4.451 4.462-.003.035-.005.07-.005.105v9.218c0 1.1-.904 1.995-2.016 1.995h-1.778a2.008 2.008 0 0 1-2.016-1.996v-18.66c0-.667-.546-1.207-1.219-1.207-.672 0-1.218.54-1.218 1.206v18.662c0 .81.223 1.569.61 2.222h-4.47c-.526 0-1.092-.037-1.603-.1Zm39.775-37.371c.044 1.072-.923 1.936-2.015 1.936h-2.165a15.608 15.608 0 0 0 1.287-6.222c0-4.804-2.173-9.114-5.597-12.02.143-.032.289-.049.438-.049h4.42c1.112 0 1.883.903 2.016 1.996.428 3.52 1.467 10.75 1.616 14.359Z" fill="#fff"/></svg><svg fill="none" viewBox="0 0 163 133" id="veterinary" xmlns="http://www.w3.org/2000/svg"><path d="M3.509 71.303s59.595-60.303 106.5-66c44-19 59 17.5 49.5 39.5s-7 50.5-12.5 66-52.5 25-108 21-35.5-60.5-35.5-60.5Z" fill="#90B4CE"/><path d="M103.487 89.027a1.21 1.21 0 0 0-1.211 1.21c0 9.128-7.426 16.553-16.553 16.553S69.17 99.365 69.17 90.238v-2.541l6.724-12.367c4.828-3.373 7.124-9.45 6.394-16.868a4.288 4.288 0 0 0 2.947-4.068c0-2.36-1.921-4.28-4.282-4.28a4.286 4.286 0 0 0-4.28 4.28 4.289 4.289 0 0 0 3.189 4.14c.707 6.767-1.341 12.217-5.69 15.04-3.804 2.467-8.773 2.498-12.66.078-4.498-2.801-6.702-8.282-6.12-15.123a4.288 4.288 0 0 0 3.17-4.135c0-2.36-1.92-4.28-4.28-4.28A4.286 4.286 0 0 0 50 54.393a4.288 4.288 0 0 0 2.967 4.074c-.618 7.713 1.994 13.956 7.263 17.238l6.518 11.99v2.542c0 5.048 1.98 9.808 5.573 13.402 3.594 3.593 8.353 5.572 13.402 5.572 5.049 0 9.808-1.979 13.402-5.572 3.593-3.594 5.572-8.353 5.572-13.402a1.21 1.21 0 0 0-1.21-1.211ZM79.094 54.394c0-1.025.834-1.86 1.86-1.86 1.024 0 1.858.835 1.858 1.86 0 1.026-.834 1.86-1.859 1.86a1.862 1.862 0 0 1-1.86-1.86Zm-26.672 0c0-1.025.834-1.86 1.86-1.86 1.025 0 1.859.835 1.859 1.86 0 1.026-.834 1.86-1.86 1.86a1.862 1.862 0 0 1-1.86-1.86Zm11.44 22.921c1.286.367 2.612.55 3.937.55 1.462 0 2.923-.225 4.325-.671l-4.164 7.66-4.099-7.539Z" fill="#fff"/></svg></svg>